<svg viewBox="0 0 32 32" role="img" aria-label="Twitter" focusable="false" style="display: block; fill: rgb(118, 118, 118); height: 1em; width: 1em;" xmlns="http://www.w3.org/2000/svg" xmlns:xlink="http://www.w3.org/1999/xlink"><path fill-rule="evenodd" d="M31 6.359c-1.16.493-2.32.821-3.546.952 1.293-.755 2.22-1.872 2.718-3.384a13.048 13.048 0 0 1-3.913 1.512c-1.226-1.282-2.75-1.939-4.51-1.939-3.413 0-6.167 2.728-6.167 6.115 0 .493.067.953.166 1.38-4.94-.23-9.513-2.596-12.664-6.378-.563.954-.861 1.972-.861 3.089 0 2.07 1.027 3.914 2.75 5.063-.995-.032-1.922-.295-2.816-.755v.066c0 2.89 2.12 5.424 4.94 5.982-.63.165-1.16.231-1.624.231-.298 0-.696-.033-1.127-.132a6.074 6.074 0 0 0 5.737 4.242c-2.22 1.742-4.775 2.63-7.658 2.63-.563 0-1.06-.034-1.425-.1 2.85 1.841 6 2.76 9.413 2.76 7.294 0 12.83-4.012 15.514-9.302 1.359-2.661 2.021-5.359 2.021-8.086v-.46c-.033-.165-.033-.296-.033-.329A12.663 12.663 0 0 0 31 6.36"/></svg>