<svg viewBox="0 0 24 24" role="img" aria-label="Business Travel Ready" focusable="false" style="display: block; fill: currentcolor; height: 14px; width: 14px;" xmlns="http://www.w3.org/2000/svg" xmlns:xlink="http://www.w3.org/1999/xlink"><path fill-rule="evenodd" d="M21 7h2c.5 0 1 .445 1 1v13c0 .5-.5 1-1 1h-2V7zm-9 0h1.5c.729 0 2.066.132 1.816-.754L14.6 4.669C14.457 4.333 14.326 4 14 4h-4c-.326 0-.457.333-.6.669l-.716 1.577C8.434 7.132 9.772 7 10.5 7H12zm0 15H4V7c.851.002 1.5 0 2-.5 0 0 .292-.16.995-1.587C8.121 2.496 8.5 2 10 2h4c1.5 0 1.88.496 3.005 2.913C17.709 6.34 18 6.5 18 6.5c.5.5 1.148.502 2 .5v15h-8zm-9 0H1c-.5 0-1-.5-1-1V8c0-.555.5-1 1-1h2v15z"/></svg>