<svg viewBox="0 0 24 24" role="img" aria-label="Instagram" focusable="false" style="display: block; fill: rgb(118, 118, 118); height: 1em; width: 1em;" xmlns="http://www.w3.org/2000/svg" xmlns:xlink="http://www.w3.org/1999/xlink"><path d="M23.094.906C22.489.301 21.767 0 20.922 0H3.078C2.233 0 1.511.301.906.906.301 1.511 0 2.233 0 3.078v17.844c0 .845.301 1.567.906 2.172.605.605 1.327.906 2.172.906h17.844c.845 0 1.567-.301 2.172-.906.605-.605.906-1.327.906-2.172V3.078c0-.845-.301-1.567-.906-2.172zM8.618 8.65c.943-.911 2.077-1.367 3.4-1.367 1.331 0 2.47.456 3.413 1.367.943.91 1.413 2.013 1.413 3.303 0 1.291-.473 2.393-1.413 3.304-.943.911-2.082 1.367-3.414 1.367-1.322 0-2.456-.456-3.399-1.367-.943-.91-1.413-2.013-1.413-3.304 0-1.29.47-2.392 1.413-3.303zm12.664 11.632c0 .27-.093.498-.277.681a.923.923 0 0 1-.671.275H3.632a.927.927 0 0 1-.681-.275.921.921 0 0 1-.274-.68V10.155H4.88a6.737 6.737 0 0 0-.314 2.047c0 2.001.73 3.708 2.187 5.119 1.457 1.413 3.213 2.118 5.266 2.118a7.5 7.5 0 0 0 3.749-.97 7.288 7.288 0 0 0 2.718-2.632 6.93 6.93 0 0 0 1-3.632c0-.708-.106-1.391-.314-2.048h2.109v10.124zm0-13.954c0 .301-.106.559-.314.767a1.046 1.046 0 0 1-.766.313h-2.719c-.303 0-.558-.105-.766-.313a1.046 1.046 0 0 1-.314-.767V3.75c0-.291.106-.543.314-.756.208-.213.465-.321.766-.321h2.719c.303 0 .558.108.766.32.208.214.314.466.314.757v2.58z" fill-rule="evenodd"/></svg>